<svg width="1861" height="595" viewBox="0 0 1861 595" fill="none" xmlns="http://www.w3.org/2000/svg">
<rect width="1861" height="595" fill="#E5E5E5"/>
<path d="M326.099 18.9965C310.097 23.0857 294.718 37.2055 290.653 53.4394C285.489 74.0628 298.952 93.063 298.06 113.439C297.455 127.253 292.819 137.864 287.77 150.439C283.604 160.812 279.634 171.206 275.129 181.439C271.434 189.834 269.031 200.918 263.414 208.18C255.217 218.776 246.191 225.622 232.099 225.179C214.482 224.625 204.253 212.22 191.538 201.647C178.436 190.753 164.558 180.055 152.789 167.693C143.153 157.572 137.616 145.759 134.269 132.349C132.958 127.099 133.83 121.637 132.567 116.454C131.744 113.078 129.524 110.436 127.963 107.4C125.102 101.832 122.87 95.7404 117.84 91.6686C99.7288 77.0071 71.1043 74.7878 52.5811 89.8954C50.1968 91.84 48.9927 94.6384 47.1011 96.9904C44.1438 100.667 40.5049 103.888 38.821 108.439C30.9181 129.798 38.1891 153.305 55.8172 166.879C59.4963 169.712 63.6696 173.646 68.1883 175.024C78.2558 178.095 89.7484 176.004 100.099 176.478C108.313 176.854 119.665 180.29 127.095 183.867C131.067 185.78 133.744 189.54 137.124 192.265C146.531 199.849 155.835 207.359 165.084 215.176C170.144 219.452 174.965 224.326 180.192 228.363C186.183 232.991 191.941 236.447 196.655 242.61C208.746 258.415 201.253 279.487 211.27 296.424C214.363 301.654 220.195 308.218 225.153 311.706C233.625 317.667 243.576 321.189 250.08 329.609C257.159 338.772 258.868 352.362 261.315 363.439C264.346 377.156 267.846 390.64 270.361 404.439C271.598 411.223 273.784 417.382 274.059 424.439C274.787 443.135 263.439 455.745 257.902 472.439C255.694 479.096 256.193 490.531 257.323 497.439C261.884 525.332 293.137 541.493 319.099 533.886C347.759 525.488 361.698 490.19 348.524 464.439C340.887 449.511 323.555 443.546 313.108 430.925C304.379 420.379 301.051 408.264 297.395 395.529C293.232 381.03 289.992 366.225 286.64 351.439C283.674 338.355 277.902 324.436 284.737 311.439C297.727 286.739 323.692 289.904 347.099 293.015C352.422 293.722 357.76 293.163 363.099 293.529C368.784 293.918 374.394 295.285 380.099 295.424C387.497 295.606 396.11 294.98 403.099 297.791C411.725 301.26 422.322 306.531 429.125 312.942C435.217 318.682 440.619 327.21 448.138 331.14C457.559 336.063 467.769 336.439 478.099 336.439C482.422 336.439 486.992 336.902 491.099 335.306C498.69 332.358 503.484 326.976 508.972 321.283C512.916 317.191 517.3 312.808 519.374 307.4C526.891 287.797 520.126 263.183 503.64 250.28C494.072 242.792 479.09 239.569 467.099 240.532C457.218 241.327 448.797 245.744 441.189 251.964C436.593 255.72 432.867 260.433 427.099 262.564C420.783 264.897 412.739 268.272 406.099 269.229C392.556 271.181 377.592 267.893 364.099 266.609C353.131 265.565 342.985 266.22 332.099 263.894C322.787 261.905 313.651 263.069 305.138 257.666C297.507 252.822 293.319 243.203 290.154 235.015C285.801 223.753 292.136 211.488 296.55 201.439C302.185 188.607 308.615 175.59 313.506 162.439C318.788 148.234 323.078 135.132 335.124 124.949C342.92 118.358 351.497 115.521 360.099 110.35C373.297 102.417 384.63 89.1113 386.889 73.4394C391.489 41.5327 357.896 10.8713 326.099 18.9965ZM210.099 93.1231C192.457 98.3334 176.256 112.105 173.4 131.439C172.167 139.789 173.807 147.549 176.269 155.439C177.561 159.579 178.103 163.737 180.609 167.42C193.079 185.753 218.816 191.202 239.099 185.225C244.913 183.512 249.688 178.493 254.08 174.553C264.76 164.975 272.697 147.32 269.836 132.609C264.829 106.864 236.75 85.2521 210.099 93.1231ZM340.099 159.439C337.828 163.673 333.691 166.714 330.924 170.724C322.82 182.468 317.533 196.956 321.849 211.439C323.346 216.462 325.442 221.932 328.134 226.435C330.234 229.949 333.06 232.411 334.099 236.439C337.72 238.022 340.543 240.798 344.103 242.484C360.479 250.241 376.859 250.985 392.81 241.623C398.856 238.075 406.054 232.261 409.911 226.4C426.291 201.5 414.191 166.818 387.099 156.185C379.07 153.034 368.627 152.126 360.099 153.818C353.338 155.159 346.898 158.554 340.099 159.439ZM676.099 307.439C684.952 309.083 694.123 308.443 703.099 308.439C705.715 308.438 710.209 309.189 712.071 306.836C715.883 302.019 710.403 295.925 709.398 291.4C708.508 287.391 709.147 283.451 707.871 279.439C704.883 270.05 703.564 260.041 701.76 250.439C699.178 236.701 695.142 223.184 692.567 209.439C689.923 195.331 687.755 181.026 683.809 167.154C682.619 162.971 684.248 157.672 679.951 155.012C673.818 151.214 662.076 153.439 655.099 153.439C647.453 153.439 635.358 151.162 628.385 154.564C616.34 160.44 614.841 170.838 611.47 182.443C608.78 191.705 606.835 201.135 604.385 210.439C602.714 216.788 599.919 223.115 598.577 229.478C597.12 236.39 596.445 243.604 594.671 250.439C593.938 253.261 592.134 255.623 591.358 258.439C588.414 269.131 586.459 279.762 583.278 290.439C582.205 294.041 579.612 303.578 582.131 306.836C583.814 309.013 587.704 308.434 590.099 308.439C596.289 308.452 607.963 310.694 612.952 306.291C620.763 299.397 615.294 282.654 623.402 276.042C627.572 272.642 637.029 274.439 642.099 274.439C649.035 274.439 660.615 272.23 666.91 275.377C670.419 277.132 671.333 280.957 672.225 284.44C674.146 291.94 675.766 299.689 676.099 307.439ZM778.099 307.439V242.439C778.099 235.893 775.558 224.046 782.099 220.439C786.308 230.074 793.531 238.755 799.234 247.529C808.33 261.521 817.423 275.54 826.577 289.439C830.741 295.762 837.616 301.275 840.099 308.439C846.098 308.439 852.099 308.48 858.098 308.438C860.297 308.423 863.376 308.785 864.92 306.836C866.925 304.305 866.099 299.44 866.099 296.439V272.439V187.439V165.439C866.099 162.621 866.814 158.392 865.071 155.953C861.593 151.086 847.372 153.288 842.1 153.454C839.81 153.527 836.896 153.52 835.702 155.873C834.036 159.155 835.099 164.85 835.099 168.439V199.439V239.439C827.814 237.217 824.574 228.223 820.405 222.439C809.027 206.651 798.222 190.342 787.072 174.404C782.254 167.516 778.568 155.016 769.099 153.586C764.331 152.867 750.079 151.395 747.702 156.667C746.335 159.7 747.099 164.193 747.099 167.439V190.439V271.439V296.439C747.099 299.349 746.187 304.387 748.127 306.836C749.844 309.003 753.679 308.434 756.099 308.439C763.473 308.454 770.825 308.789 778.099 307.439ZM901.099 308.439H924.099C927.154 308.438 931.168 309.004 933.665 306.836C936.282 304.563 936.091 300.555 936.767 297.439C938.066 291.453 939.055 283.518 942.443 278.328C945.223 274.071 949.542 274.441 954.099 274.439H979.099C982.575 274.439 987.478 273.653 990.209 276.333C993.37 279.434 992.898 285.41 993.728 289.439C994.436 292.877 996.076 296.01 996.759 299.439C997.249 301.881 996.959 304.91 998.839 306.836C1000.68 308.708 1003.71 308.422 1006.1 308.438C1012.43 308.482 1018.77 308.452 1025.1 308.439C1027.29 308.434 1030.52 308.911 1032.36 307.411C1035.35 304.961 1032.89 300.308 1032.07 297.439C1029.87 289.733 1029.19 281.327 1027.71 273.439C1022.03 243.167 1015.34 213.063 1007.39 183.439C1005.34 175.789 1007.97 160.278 1000.95 155.042C997.179 152.229 990.528 153.439 986.099 153.439C976.766 153.439 967.432 153.391 958.099 153.44C952.41 153.47 944.956 154.855 941.193 159.586C933.626 169.1 932.845 184.175 929.212 195.439C924.819 209.063 922.595 222.632 919.256 236.4C916.158 249.17 911.862 261.538 909.084 274.439C906.612 285.921 901.199 296.472 901.099 308.439ZM1159.1 276.439H1125.1C1120.93 276.439 1114.05 277.725 1110.38 275.411C1107.71 273.727 1107.29 270.314 1107.14 267.439C1106.82 261.135 1107.1 254.751 1107.1 248.439V178.439C1107.1 172.792 1107.35 167.08 1107.06 161.44C1106.94 159.045 1106.72 156.145 1104.59 154.618C1102.3 152.982 1098.75 153.443 1096.1 153.439C1090.1 153.429 1084.1 153.398 1078.1 153.44C1075.58 153.457 1072.03 153.065 1070.7 155.757C1069.28 158.657 1070.1 163.297 1070.1 166.439V189.439V271.439V296.439C1070.1 299.457 1069.33 304.032 1071.42 306.545C1074.75 310.563 1086.39 308.439 1091.1 308.439H1139.1C1143.61 308.439 1153.81 310.334 1157.5 307.411C1159.66 305.694 1159.09 301.859 1159.1 299.439V276.439ZM1291.1 153.439H1267.1C1264.07 153.439 1259.36 152.596 1256.75 154.467C1251.62 158.136 1249.99 169.751 1248.47 175.438C1244.93 188.739 1239.06 201.479 1234.56 214.439C1233.47 217.589 1231.76 220.13 1231.1 223.439C1228.7 223.431 1225.63 223.818 1223.52 222.411C1221.01 220.736 1220.37 217.114 1219.51 214.439C1217.94 209.553 1215.92 204.445 1213.92 199.724C1209.27 188.776 1206.46 177.334 1201.98 166.269C1200.46 162.524 1200.61 156.889 1196.8 154.467C1192.41 151.673 1183.14 153.439 1178.1 153.439C1173.96 153.439 1167.21 152.165 1163.42 154.042C1160.55 155.465 1161.46 158.995 1162.19 161.439C1164.19 168.103 1166 175.11 1168.9 181.439C1177.33 199.826 1180.73 220.688 1189.72 238.721C1191.22 241.743 1192.71 244.583 1195.34 246.775C1199.79 250.476 1206.46 252.976 1207.04 259.454C1208.07 270.926 1207.1 282.918 1207.1 294.439C1207.1 297.856 1205.81 304.961 1208.84 307.411C1210.69 308.906 1213.9 308.434 1216.1 308.439H1234.1C1236.52 308.434 1240.36 309.004 1242.07 306.836C1244.4 303.896 1243.1 296.97 1243.1 293.439V269.439C1243.1 265.856 1242.26 260.95 1243.7 257.586C1245.07 254.377 1249.51 253.503 1252.06 251.38C1255.17 248.787 1257.36 244.939 1259.32 241.439C1263.88 233.289 1265.98 224.085 1269.13 215.439C1270.88 210.661 1273.53 206.236 1275.2 201.439C1276.44 197.85 1276.64 193.959 1278.09 190.439C1282.68 179.277 1290.96 165.684 1291.1 153.439ZM1316.1 185.439H1338.1C1340.99 185.44 1345.24 184.787 1347.5 187.042C1349.57 189.113 1349.09 192.78 1349.1 195.439V216.439V281.439V298.439C1349.1 300.772 1348.68 303.905 1350.13 305.925C1352.04 308.598 1356.2 308.399 1359.1 308.435C1367.65 308.541 1377.88 309.87 1386.1 307.439C1383.83 297.918 1385.1 287.188 1385.1 277.439V223.439V200.439C1385.1 197.058 1384.41 192.697 1385.7 189.498C1387.32 185.497 1391.4 185.465 1395.1 185.44C1401.07 185.399 1413.98 187.88 1418.78 183.836C1422.72 180.514 1421.1 172.02 1421.1 167.439C1421.1 164.062 1421.68 159.82 1420.21 156.667C1418.3 152.588 1412.81 153.44 1409.1 153.439H1378.1H1331.1C1327.32 153.439 1317.75 151.722 1315.13 155.042C1313.19 157.495 1314.49 161.677 1314.81 164.439C1315.64 171.468 1314.8 178.428 1316.1 185.439ZM1457.53 154.467C1454.02 156.893 1455.78 161.981 1456.01 165.439C1456.69 175.356 1456.1 185.5 1456.1 195.439V274.439V296.439C1456.1 299.376 1455.46 303.413 1456.84 306.121C1458.2 308.785 1461.57 308.421 1464.1 308.438C1469.77 308.477 1475.43 308.45 1481.1 308.439C1483.9 308.433 1487.34 308.791 1489.78 307.121C1493.01 304.912 1492.1 299.803 1492.1 296.439V266.439V188.439V167.439C1492.1 164.137 1492.8 159.745 1491.36 156.667C1490 153.771 1486.93 153.544 1484.1 153.454C1478.11 153.266 1472.09 153.436 1466.1 153.439C1463.48 153.44 1459.82 152.887 1457.53 154.467ZM1571.1 154.072C1564.58 155.835 1557.56 157.977 1552.28 162.366C1542.21 170.742 1542.1 182.55 1542.1 194.439V223.439V256.439C1542.1 270.672 1541.05 286.411 1552.27 297.23C1555.41 300.252 1559.24 302.142 1563.1 304.018C1565.75 305.307 1568.23 307.087 1571.1 307.87C1580.68 310.484 1593.2 308.439 1603.1 308.439H1622.1C1625.21 308.439 1629.06 308.967 1631.95 307.581C1634.9 306.169 1635.04 303.337 1635.1 300.435C1635.21 294.46 1635.27 288.413 1635.08 282.44C1635.01 279.978 1634.91 277.161 1632.67 275.618C1628.95 273.058 1623.18 275.07 1619.1 275.349C1611.16 275.893 1603.05 275.439 1595.1 275.439C1591.53 275.439 1586.64 276.271 1583.29 274.836C1576.83 272.07 1579.1 260.007 1579.1 254.439V211.439C1579.1 205.005 1577.71 196.718 1579.42 190.498C1580.95 184.935 1588.69 186.439 1593.1 186.439H1621.1C1624.53 186.439 1629.51 187.319 1632.33 184.925C1637.56 180.492 1635.14 167.546 1635.1 161.439C1635.08 158.923 1635.47 155.367 1632.78 154.042C1628.54 151.953 1620.75 153.439 1616.1 153.439H1587.1C1581.94 153.439 1576.13 152.714 1571.1 154.072ZM1693.1 308.439C1695.18 300.645 1697.02 292.715 1699.39 285.015C1700.31 282.02 1699.96 278.276 1702.53 276.042C1705.23 273.704 1709.81 274.439 1713.1 274.439H1738.1C1741.2 274.439 1746.07 273.618 1748.5 276.042C1750.37 277.906 1749.98 280.937 1750.79 283.269C1753.62 291.448 1756.25 299.886 1758.1 308.439H1782.1C1784.86 308.433 1788.79 308.95 1790.78 306.545C1792.84 304.054 1791.73 300.299 1791.39 297.439C1790.56 290.51 1789.3 284.121 1787.19 277.439C1785.61 272.479 1785.62 267.466 1784.59 262.439C1782.91 254.327 1779.86 246.554 1778.11 238.439C1777.18 234.104 1777.48 229.771 1776.78 225.439C1775.61 218.284 1772.62 211.605 1771.53 204.44C1770.92 200.452 1769.24 197.227 1768.4 193.4C1766.41 184.309 1764.98 174.673 1763.51 165.439C1762.61 159.793 1761.86 153.76 1755.08 153.458C1744.47 152.985 1733.73 153.439 1723.1 153.439C1717.96 153.439 1711.84 152.501 1707.1 154.833C1694.45 161.061 1692.83 175.289 1689.63 187.439C1683.96 208.978 1678.29 230.739 1672.87 252.349C1669.45 265.955 1665 279.566 1662.51 293.439C1661.85 297.126 1658.62 303.429 1661.28 306.836C1663.11 309.183 1667.51 308.438 1670.1 308.439H1693.1Z" fill="url(#paint0_angular_0_1)" style="mix-blend-mode:darken"/>
<path d="M646 192C642.185 210.574 633.053 229.931 633 249H657C659.605 248.999 664.123 249.753 665.971 247.397C669.397 243.029 665.048 231.646 663.785 227C661.795 219.682 660.244 211.497 658.924 204C658.322 200.582 658.487 195.733 655.427 193.434C652.842 191.49 649.039 192.002 646 192ZM978 192C974.962 192 970.261 191.158 967.649 193.028C964.602 195.209 963.982 200.595 963.439 204C962.017 212.917 959.468 221.238 957.353 230C956.304 234.341 951.797 243.303 955.028 247.397C956.579 249.362 959.794 248.984 962 248.999C967.998 249.041 974.002 249.041 980 248.999C982.512 248.982 986.077 249.375 987.397 246.682C989 243.409 987.334 239.245 986.594 236C985.327 230.444 984.822 224.617 983.755 219C982.038 209.954 979.164 201.165 978 192ZM1747 249C1746.99 238.326 1743.34 228.399 1741.46 218C1740.16 210.737 1740.77 201.957 1737.44 195.148C1735.83 191.854 1731.29 191.439 1728.06 192.318C1723.98 193.43 1723.88 198.06 1722.54 201.424C1720.44 206.688 1721 212.488 1719.7 217.985C1718.32 223.828 1715.58 228.878 1715 235C1714.7 238.176 1712.06 244.61 1714.07 247.397C1715.78 249.782 1720.49 248.999 1723 249H1747Z" fill="white"/>
<path d="M355 317.595C343.32 320.296 330.353 324.59 322.508 334.3C303.428 357.92 311.665 396.045 339.285 409.081C349.671 413.982 363.603 414.502 374.715 411.541C406.606 403.041 417.624 359.016 398.046 334.304C394.05 329.261 386.638 325.417 381 322.505C373.079 318.413 364.015 315.51 355 317.595Z" fill="url(#paint1_angular_0_1)" style="mix-blend-mode:darken"/>
<defs>
<radialGradient id="paint0_angular_0_1" cx="0" cy="0" r="1" gradientUnits="userSpaceOnUse" gradientTransform="translate(913.818 276.719) rotate(90) scale(259.046 878.175)">
<stop stop-color="#44C8E6" stop-opacity="0.859375"/>
<stop offset="0.447917" stop-color="#12181C" stop-opacity="0.922363"/>
<stop offset="1" stop-color="#2A1347"/>
</radialGradient>
<radialGradient id="paint1_angular_0_1" cx="0" cy="0" r="1" gradientUnits="userSpaceOnUse" gradientTransform="translate(359.967 365.134) rotate(90) scale(48.2321 47.8205)">
<stop stop-color="#18C8BD"/>
<stop offset="0.9999" stop-color="#060118" stop-opacity="0.864583"/>
<stop offset="1" stop-color="#2B2222" stop-opacity="0"/>
</radialGradient>
</defs>
</svg>
